<?xml version="1.0" standalone="no"?><!DOCTYPE svg PUBLIC "-//W3C//DTD SVG 1.1//EN" "http://www.w3.org/Graphics/SVG/1.1/DTD/svg11.dtd"><svg t="1758506241972" class="icon" viewBox="0 0 1107 1024" version="1.1" xmlns="http://www.w3.org/2000/svg" p-id="4706" xmlns:xlink="http://www.w3.org/1999/xlink" width="216.2109375" height="200"><path d="M800.008 502.839184a224.02857 224.02857 0 1 1 0 447.984001 224.02857 224.02857 0 0 1 0-447.984001zM85.135245 72.628263l8.045427 4.242134 66.703904 44.908111 1.828506 1.389665 6.582622 3.14503c8.776829 4.973537 16.090854 12.214421 21.210671 21.210671l3.291311 7.021464 2.413628 7.679725 66.850184 327.887719c8.557409 41.68994 16.383415 77.52866 24.355701 110.44177l4.754116 19.382165 9.800793 37.301524 4.680976 16.529696 9.947073 2.486768c16.529695 4.534695 31.816007 11.409878 44.61555 20.186708l9.21567 6.875183 5.631799 5.119817 20.84497-5.119817c24.721403-5.9975 58.585336-13.677226 101.006678-22.892897l9.873934-2.194207a299.143602 299.143602 0 0 0 3.949573 117.024392l-110.222349 24.867683-1.535946 7.167744c-12.799543 49.808507-47.68744 85.281526-96.983964 93.180672l-10.824757 1.316525-10.459055 0.365701c-68.898111 0-125.43552-48.272562-132.383843-110.076069-4.827256-43.591586 8.99625-84.476983 38.032927-110.734331l8.264848-6.802043 1.243384-0.950823-1.389665-5.9975-107.51616-479.653726-62.68119-42.128782a53.246098 53.246098 0 0 1-17.407378-66.265062l3.803293-6.655762 4.388414-5.778079 5.558659-5.485519a61.291525 61.291525 0 0 1 64.509696-8.99625z m714.872755 494.208636a32.035427 32.035427 0 0 0-31.523446 26.257348l-0.511982 5.778079v129.092532a32.327988 32.327988 0 0 0 5.77808 17.187958l1.023963 1.462805c0.950823 1.170244 1.901646 2.194207 2.92561 3.218171l1.023963 0.950823c1.755366 1.462805 3.364451 2.633049 5.119818 3.657012l0.14628 0.07314 110.807471 63.997715a31.962287 31.962287 0 0 0 37.301525-51.637013l-5.266097-3.730153-94.862898-54.855184V598.872326a32.035427 32.035427 0 0 0-26.257348-31.523446l-5.77808-0.511981z m25.599085-373.234671l52.441556 246.482626a297.461376 297.461376 0 0 0-101.079818-9.508232 31.962287 31.962287 0 0 0-38.54491-31.450305l-313.040248 66.484483a31.962287 31.962287 0 0 0 7.606585 63.266312L438.84147 528.145709l182.704332-38.91061a297.607657 297.607657 0 0 0-106.565337 153.594514l-103.127745 21.942074a73.140245 73.140245 0 0 1-86.817471-56.317989l-62.75433-295.120888a73.140245 73.140245 0 0 1 56.317988-86.744331l420.336988-89.304239a73.140245 73.140245 0 0 1 86.744331 56.317988zM711.800864 273.837077l-312.967108 66.557623a32.035427 32.035427 0 0 0 7.606585 63.266312l5.70494-0.731402 313.040248-66.484483a32.035427 32.035427 0 0 0-13.384665-62.60805z" fill="#FF7A37" p-id="4707"></path></svg>