<?xml version="1.0" standalone="no"?><!DOCTYPE svg PUBLIC "-//W3C//DTD SVG 1.1//EN" "http://www.w3.org/Graphics/SVG/1.1/DTD/svg11.dtd"><svg t="1755919298789" class="icon" viewBox="0 0 1030 1024" version="1.1" xmlns="http://www.w3.org/2000/svg" p-id="2510" xmlns:xlink="http://www.w3.org/1999/xlink" width="201.171875" height="200"><path d="M185.75 956.375c-33.75 0-61.875-11.25-84.375-33.75-22.5-22.5-33.75-50.625-33.75-84.375v-163.125c0-11.25 5.625-22.5 11.25-28.125s16.875-11.25 28.125-11.25 22.5 5.625 28.125 11.25 11.25 16.875 11.25 28.125v163.125c0 11.25 5.625 28.125 11.25 33.75s16.875 11.25 33.75 11.25h652.5c11.25 0 28.125-5.625 33.75-11.25 5.625-5.625 11.25-16.875 11.25-33.75v-163.125c0-11.25 5.625-22.5 11.25-28.125 5.625-5.625 16.875-11.25 28.125-11.25s22.5 5.625 28.125 11.25c5.625 5.625 11.25 16.875 11.25 28.125v163.125c0 33.75-11.25 61.875-33.75 84.375-22.5 22.5-50.625 33.75-84.375 33.75H185.75z" p-id="2511"></path><path d="M534.5 73.25c5.625 5.625 11.25 16.875 11.25 28.125v478.125c0 5.625 5.625 5.625 5.625 5.625h5.625l135-140.625c5.625-5.625 11.25-16.875 22.5-16.875s22.5 5.625 28.125 11.25 11.25 16.875 11.25 28.125-5.625 22.5-11.25 28.125l-196.875 208.125c-5.625 5.625-16.875 11.25-28.125 11.25s-22.5-5.625-33.75-16.875L281.375 495.125c-5.625-5.625-11.25-16.875-11.25-28.125 0-5.625 5.625-11.25 16.875-22.5 5.625-5.625 16.875-11.25 28.125-11.25 0 0 16.875 5.625 22.5 11.25l129.375 140.625h5.625c5.625 0 5.625-5.625 5.625-5.625V107c0-11.25 5.625-22.5 11.25-28.125s16.875-11.25 28.125-11.25c5.625 0 11.25 0 16.875 5.625z" p-id="2512"></path></svg>