<?xml version="1.0" standalone="no"?><!DOCTYPE svg PUBLIC "-//W3C//DTD SVG 1.1//EN" "http://www.w3.org/Graphics/SVG/1.1/DTD/svg11.dtd"><svg t="1764030848517" class="icon" viewBox="0 0 1024 1024" version="1.1" xmlns="http://www.w3.org/2000/svg" p-id="11014" xmlns:xlink="http://www.w3.org/1999/xlink" width="200" height="200"><path d="M891.733333 435.2H132.266667c-27.733333 0-51.2-23.466667-51.2-51.2V59.733333C81.066667 32 104.533333 8.533333 132.266667 8.533333h759.466666c27.733333 0 51.2 23.466667 51.2 51.2V384c2.133333 29.866667-21.333333 51.2-51.2 51.2M147.2 369.066667h729.6V74.666667H147.2v294.4zM277.333333 93.866667c-12.8 0-23.466667 8.533333-23.466666 21.333333v211.2c0 12.8 10.666667 21.333333 23.466666 21.333333s23.466667-8.533333 23.466667-21.333333V115.2c0-10.666667-10.666667-21.333333-23.466667-21.333333m151.466667 0c-12.8 0-23.466667 8.533333-23.466667 21.333333v211.2c0 12.8 10.666667 21.333333 23.466667 21.333333 12.8 0 23.466667-8.533333 23.466667-21.333333V115.2c0-10.666667-10.666667-21.333333-23.466667-21.333333m153.6 0c-12.8 0-23.466667 8.533333-23.466667 21.333333v211.2c0 12.8 10.666667 21.333333 23.466667 21.333333 12.8 0 23.466667-8.533333 23.466667-21.333333V115.2c0-10.666667-10.666667-21.333333-23.466667-21.333333m153.6 0c-12.8 0-23.466667 8.533333-23.466667 21.333333v211.2c0 12.8 10.666667 21.333333 23.466667 21.333333 12.8 0 23.466667-8.533333 23.466667-21.333333V115.2c-2.133333-10.666667-10.666667-21.333333-23.466667-21.333333m172.8 849.066666H117.333333c-21.333333 0-36.266667 17.066667-36.266666 36.266667 0 19.2 17.066667 36.266667 36.266666 36.266667h791.466667c21.333333 0 36.266667-17.066667 36.266667-36.266667 0-19.2-17.066667-36.266667-36.266667-36.266667M277.333333 563.2c-12.8 0-23.466667 8.533333-23.466666 21.333333v211.2c0 12.8 10.666667 21.333333 23.466666 21.333334 12.8 0 23.466667-8.533333 23.466667-21.333334v-211.2c0-12.8-10.666667-21.333333-23.466667-21.333333m151.466667 0c-12.8 0-23.466667 8.533333-23.466667 21.333333v211.2c0 12.8 10.666667 21.333333 23.466667 21.333334 12.8 0 23.466667-8.533333 23.466667-21.333334v-211.2c0-12.8-10.666667-21.333333-23.466667-21.333333m153.6 0c-12.8 0-23.466667 8.533333-23.466667 21.333333v211.2c0 12.8 10.666667 21.333333 23.466667 21.333334 12.8 0 23.466667-8.533333 23.466667-21.333334v-211.2c0-12.8-10.666667-21.333333-23.466667-21.333333m153.6 0c-12.8 0-23.466667 8.533333-23.466667 21.333333v211.2c0 12.8 10.666667 21.333333 23.466667 21.333334 12.8 0 23.466667-8.533333 23.466667-21.333334v-211.2c-2.133333-12.8-10.666667-21.333333-23.466667-21.333333m155.733333 341.333333H132.266667c-27.733333 0-51.2-23.466667-51.2-51.2V526.933333c0-27.733333 23.466667-51.2 51.2-51.2h759.466666c27.733333 0 51.2 23.466667 51.2 51.2V853.333333c2.133333 27.733333-21.333333 51.2-51.2 51.2M147.2 838.4h729.6V541.866667H147.2v296.533333z" p-id="11015"></path></svg>