<?xml version="1.0" standalone="no"?><!DOCTYPE svg PUBLIC "-//W3C//DTD SVG 1.1//EN" "http://www.w3.org/Graphics/SVG/1.1/DTD/svg11.dtd"><svg t="1758506268929" class="icon" viewBox="0 0 1024 1024" version="1.1" xmlns="http://www.w3.org/2000/svg" p-id="6754" xmlns:xlink="http://www.w3.org/1999/xlink" width="200" height="200"><path d="M511.99999 8.904661C231.692195 8.904661 4.456044 236.140812 4.456044 516.448607 4.456044 796.756401 231.692195 1023.99255 511.99999 1023.99255 792.307784 1023.99255 1019.543933 796.756401 1019.543933 516.448607 1019.543933 236.140812 792.307784 8.904661 511.99999 8.904661L511.99999 8.904661ZM688.768821 720.559357 673.815792 735.51238C661.426896 747.898981 641.341018 747.898981 628.953271 735.51238L473.323304 579.881265C459.767747 576.273339 449.730549 564.033722 449.730549 549.343653L449.730549 232.12869C449.730549 214.608089 463.931445 200.407193 481.452046 200.407193L502.600093 200.407193C520.118398 200.407193 534.321589 214.608089 534.321589 232.12869L534.321589 521.249605 688.768821 675.696836C701.155416 688.084583 701.155416 708.171611 688.768821 720.559357L688.768821 720.559357Z" fill="#f47920" p-id="6755"></path></svg>