<?xml version="1.0" standalone="no"?><!DOCTYPE svg PUBLIC "-//W3C//DTD SVG 1.1//EN" "http://www.w3.org/Graphics/SVG/1.1/DTD/svg11.dtd"><svg t="1764030832122" class="icon" viewBox="0 0 1024 1024" version="1.1" xmlns="http://www.w3.org/2000/svg" p-id="9585" xmlns:xlink="http://www.w3.org/1999/xlink" width="200" height="200"><path d="M917.2 770.86h-810a20 20 0 0 1-20-20V168.3a20 20 0 0 1 20-20h810a20 20 0 0 1 20 20v582.56a20 20 0 0 1-20 20z m-780-50h750V198.3h-750z" p-id="9586"></path><path d="M350.78 635.6a25 25 0 0 1-25-25V395.85a25 25 0 0 1 50 0V610.6a25 25 0 0 1-25 25zM524.59 635.85a25 25 0 0 1-25-25V286.08a25 25 0 1 1 50 0v324.77a25 25 0 0 1-25 25zM698.38 635.85a25 25 0 0 1-25-25V366.57a25 25 0 0 1 50 0v244.28a25 25 0 0 1-25 25zM822.79 877.05H213.56a25 25 0 1 1 0-50h609.23a25 25 0 0 1 0 50z" p-id="9587"></path></svg>