<?xml version="1.0" standalone="no"?><!DOCTYPE svg PUBLIC "-//W3C//DTD SVG 1.1//EN" "http://www.w3.org/Graphics/SVG/1.1/DTD/svg11.dtd"><svg t="1755919331110" class="icon" viewBox="0 0 1024 1024" version="1.1" xmlns="http://www.w3.org/2000/svg" p-id="2809" xmlns:xlink="http://www.w3.org/1999/xlink" width="200" height="200"><path d="M955.73333333 273.06666667H68.26666667v409.6h170.66666666v238.93333333h546.13333334V682.66666667h170.66666666zM716.8 853.33333333H307.2V546.13333333h409.6z m170.66666667-238.93333333h-102.4v-136.53333333H238.93333333v136.53333333h-102.4V341.33333333h750.93333334zM307.2 170.66666667h409.6v68.26666666h68.26666667V102.4H238.93333333v136.53333333h68.26666667v-68.26666666z" p-id="2810"></path><path d="M375.46666667 614.4h273.06666666v68.26666667H375.46666667zM375.46666667 716.8h273.06666666v68.26666667H375.46666667z" p-id="2811"></path><path d="M819.2 409.6m-34.13333333 0a34.13333333 34.13333333 0 1 0 68.26666666 0 34.13333333 34.13333333 0 1 0-68.26666666 0Z" p-id="2812"></path></svg>