<?xml version="1.0" standalone="no"?><!DOCTYPE svg PUBLIC "-//W3C//DTD SVG 1.1//EN" "http://www.w3.org/Graphics/SVG/1.1/DTD/svg11.dtd"><svg t="1755919561732" class="icon" viewBox="0 0 1024 1024" version="1.1" xmlns="http://www.w3.org/2000/svg" p-id="3109" xmlns:xlink="http://www.w3.org/1999/xlink" width="200" height="200"><path d="M512 273.80495803c-130.48945778 0-238.19504197 107.70558419-238.19504197 238.19504197S381.51054222 750.19504197 512 750.19504197 750.19504197 642.48945778 750.19504197 512 642.48945778 273.80495803 512 273.80495803z m0 414.25224691c-97.34927803 0-176.05720494-78.70792691-176.05720494-176.05720494s78.70792691-176.05720494 176.05720494-176.05720494 176.05720494 78.70792691 176.05720494 176.05720494-78.70792691 176.05720494-176.05720494 176.05720494z" p-id="3110"></path><path d="M959.39242667 590.70792691c-26.92639605-16.57008987-43.49648592-45.56774717-43.49648592-78.70792691s16.57008987-60.06657581 43.49648592-78.70792691c18.64135111-12.42756741 26.92639605-35.21144098 20.71261235-57.99531457-10.35630617-35.21144098-24.85513482-68.35162075-41.42522471-99.42053927-10.35630617-18.64135111-33.14017975-31.06891852-55.92405333-24.8551348-31.06891852 6.2137837-62.13783703-2.07126124-84.92171061-24.85513482-22.78387358-22.78387358-31.06891852-53.8527921-24.85513482-84.92171061 4.14252247-20.71261235-6.2137837-43.49648592-24.8551348-55.92405333-31.06891852-18.64135111-66.2803595-31.06891852-99.42053927-41.42522471-20.71261235-6.2137837-45.56774717 2.07126124-57.99531457 20.71261235-16.57008987 26.92639605-45.56774717 43.49648592-78.70792691 43.49648592s-60.06657581-16.57008987-78.70792691-43.49648592c-12.42756741-18.64135111-35.21144098-26.92639605-57.99531457-20.71261235-35.21144098 10.35630617-68.35162075 24.85513482-99.42053927 41.42522471-18.64135111 10.35630617-31.06891852 33.14017975-24.8551348 55.92405333 6.2137837 31.06891852-2.07126124 64.20909827-24.85513482 84.92171061-22.78387358 22.78387358-53.8527921 31.06891852-84.92171061 24.85513482-20.71261235-4.14252247-43.49648592 6.2137837-55.92405333 24.8551348-18.64135111 31.06891852-31.06891852 66.2803595-41.42522471 99.42053927-6.2137837 20.71261235 2.07126124 45.56774717 20.71261235 57.99531457 26.92639605 16.57008987 43.49648592 45.56774717 43.49648592 78.70792691s-16.57008987 60.06657581-43.49648592 78.70792691c-18.64135111 12.42756741-26.92639605 35.21144098-20.71261235 57.99531457 10.35630617 35.21144098 24.85513482 68.35162075 41.42522471 99.42053927 10.35630617 18.64135111 33.14017975 28.99765728 55.92405333 24.8551348 31.06891852-6.2137837 64.20909827 2.07126124 84.92171061 24.85513482 22.78387358 22.78387358 31.06891852 53.8527921 24.85513482 84.92171061-4.14252247 20.71261235 6.2137837 43.49648592 24.8551348 55.92405333 31.06891852 18.64135111 66.2803595 31.06891852 99.42053927 41.42522471 20.71261235 6.2137837 45.56774717-2.07126124 57.99531457-20.71261235 16.57008987-26.92639605 45.56774717-43.49648592 78.70792691-43.49648592s60.06657581 16.57008987 78.70792691 43.49648592c10.35630617 14.49882864 26.92639605 22.78387358 43.49648592 22.78387358 4.14252247 0 10.35630617 0 14.49882865-2.07126123 35.21144098-10.35630617 68.35162075-24.85513482 99.42053927-41.42522471 18.64135111-10.35630617 31.06891852-33.14017975 24.8551348-55.92405333-6.2137837-31.06891852 2.07126124-64.20909827 24.85513482-84.92171061 22.78387358-22.78387358 53.8527921-31.06891852 84.92171061-24.85513482 20.71261235 4.14252247 43.49648592-6.2137837 55.92405333-24.8551348 18.64135111-31.06891852 31.06891852-66.2803595 41.42522471-99.42053927 6.2137837-22.78387358-2.07126124-45.56774717-20.71261235-57.99531457z m-72.4941432 120.13315161c-49.71026963-8.28504494-99.42053925 8.28504494-134.63198027 43.49648593-35.21144098 35.21144098-51.78153086 84.92171061-43.49648592 134.63198024-22.78387358 12.42756741-47.63900839 22.78387358-72.4941432 31.06891851-28.99765728-39.35396347-74.56540445-64.20909827-126.34693532-64.20909826-49.71026963 0-95.2780168 22.78387358-126.34693529 64.20909826-24.85513482-8.28504494-49.71026963-18.64135111-72.49414322-31.06891851 8.28504494-49.71026963-8.28504494-99.42053925-43.49648594-134.63198024-35.21144098-35.21144098-84.92171061-51.78153086-134.63198023-43.49648593-12.42756741-22.78387358-22.78387358-47.63900839-31.06891853-72.49414321 39.35396347-28.99765728 64.20909827-74.56540445 64.20909828-126.34693531 0-49.71026963-22.78387358-95.2780168-64.20909828-126.34693531 8.28504494-24.85513482 18.64135111-49.71026963 31.06891853-72.49414321 49.71026963 8.28504494 99.42053925-8.28504494 134.63198023-43.49648593 35.21144098-35.21144098 51.78153086-84.92171061 43.49648594-134.63198024 22.78387358-12.42756741 47.63900839-22.78387358 72.49414322-31.06891851 28.99765728 39.35396347 74.56540445 64.20909827 126.34693529 64.20909826 49.71026963 0 95.2780168-22.78387358 126.34693532-64.20909826 24.85513482 8.28504494 49.71026963 18.64135111 72.4941432 31.06891851-8.28504494 49.71026963 8.28504494 99.42053925 43.49648592 134.63198024 35.21144098 35.21144098 84.92171061 51.78153086 134.63198027 43.49648593 12.42756741 22.78387358 22.78387358 47.63900839 31.0689185 72.49414321-39.35396347 28.99765728-64.20909827 74.56540445-64.20909827 126.34693531 0 49.71026963 22.78387358 95.2780168 64.20909827 126.34693531-8.28504494 24.85513482-18.64135111 49.71026963-31.0689185 72.49414321z" p-id="3111"></path></svg>