<?xml version="1.0" standalone="no"?><!DOCTYPE svg PUBLIC "-//W3C//DTD SVG 1.1//EN" "http://www.w3.org/Graphics/SVG/1.1/DTD/svg11.dtd"><svg t="1755919305744" class="icon" viewBox="0 0 1030 1024" version="1.1" xmlns="http://www.w3.org/2000/svg" p-id="2660" xmlns:xlink="http://www.w3.org/1999/xlink" width="201.171875" height="200"><path d="M185.75 956.375c-33.75 0-61.875-11.25-84.375-33.75-22.5-22.5-33.75-50.625-33.75-84.375v-163.125c0-11.25 5.625-22.5 11.25-28.125s16.875-11.25 28.125-11.25 22.5 5.625 28.125 11.25 11.25 16.875 11.25 28.125v163.125c0 11.25 5.625 28.125 11.25 33.75 5.625 5.625 16.875 11.25 33.75 11.25h652.5c11.25 0 28.125-5.625 33.75-11.25 5.625-5.625 11.25-16.875 11.25-33.75v-163.125c0-11.25 5.625-22.5 11.25-28.125 5.625-5.625 16.875-11.25 28.125-11.25s22.5 5.625 28.125 11.25c5.625 5.625 11.25 16.875 11.25 28.125v163.125c0 33.75-11.25 61.875-33.75 84.375-22.5 22.5-50.625 33.75-84.375 33.75H185.75z m331.875-241.875c-11.25 0-22.5-5.625-28.125-11.25s-11.25-16.875-11.25-28.125V202.625s0-5.625-5.625-5.625h-5.625L337.625 337.625c-5.625 5.625-22.5 11.25-22.5 11.25-11.25 0-22.5-5.625-28.125-11.25-11.25-11.25-16.875-16.875-16.875-22.5 0-11.25 5.625-22.5 11.25-28.125L483.875 84.5c11.25-11.25 22.5-16.875 33.75-16.875 11.25 0 22.5 5.625 28.125 11.25L742.625 287c5.625 5.625 11.25 16.875 11.25 28.125s-5.625 22.5-11.25 28.125-16.875 11.25-28.125 11.25-16.875-11.25-22.5-16.875L557 197h-5.625s-5.625 0-5.625 5.625V680.75c0 11.25-5.625 22.5-11.25 28.125s-11.25 5.625-16.875 5.625z" p-id="2661"></path></svg>